<svg width="60" height="60" viewBox="0 0 60 60" fill="none" xmlns="http://www.w3.org/2000/svg">
<rect width="60" height="60" rx="30" fill="white"/>
<path fill-rule="evenodd" clip-rule="evenodd" d="M35.9374 36.25L26.5624 30L35.9374 23.75C36.0606 23.6679 36.1663 23.5624 36.2486 23.4395C36.331 23.3165 36.3883 23.1786 36.4173 23.0335C36.4463 22.8884 36.4465 22.739 36.4178 22.5939C36.389 22.4487 36.332 22.3106 36.2499 22.1875C36.1679 22.0644 36.0624 21.9587 35.9394 21.8763C35.8165 21.794 35.6785 21.7367 35.5334 21.7077C35.3883 21.6787 35.2389 21.6785 35.0938 21.7072C34.9486 21.7359 34.8106 21.7929 34.6874 21.875L24.0599 28.96C23.8888 29.0742 23.7484 29.2288 23.6513 29.4103C23.5542 29.5917 23.5034 29.7943 23.5034 30C23.5034 30.2058 23.5542 30.4084 23.6513 30.5898C23.7484 30.7712 23.8888 30.9259 24.0599 31.04L34.6874 38.125C34.8106 38.2071 34.9486 38.2641 35.0938 38.2928C35.2389 38.3216 35.3883 38.3214 35.5334 38.2924C35.6785 38.2634 35.8165 38.2061 35.9394 38.1237C36.0624 38.0414 36.1679 37.9356 36.2499 37.8125C36.332 37.6894 36.389 37.5513 36.4178 37.4062C36.4465 37.261 36.4463 37.1116 36.4173 36.9666C36.3883 36.8215 36.331 36.6835 36.2486 36.5606C36.1663 36.4376 36.0606 36.3321 35.9374 36.25Z" fill="#09B451"/>
</svg>
